<?xml version="1.0" encoding="utf-8"?>
<!-- Generator: Adobe Illustrator 24.1.0, SVG Export Plug-In . SVG Version: 6.00 Build 0)  -->
<svg version="1.1" id="Ebene_1" xmlns="http://www.w3.org/2000/svg" xmlns:xlink="http://www.w3.org/1999/xlink" x="0px" y="0px"
	 viewBox="0 0 313.6 20.8" style="enable-background:new 0 0 313.6 20.8;" xml:space="preserve">
<style type="text/css">
	.st0{fill:#23285A;}
</style>
<g id="Ebene_2_1_">
	<g id="Brighter_AI">
		<path class="st0" d="M13.5,4.6c-0.5-1.1-1.4-2.1-2.4-2.8C9.8,1.1,8.4,0.8,7,0.8H0v15.4h3v-13h3.4c1.4-0.1,2.7,0.3,3.7,1.3
			c0.8,1.2,1.2,2.6,1.1,4c0.1,1.4-0.3,2.8-1.1,4c-1,1-2.3,1.5-3.7,1.3H5.9v2.4H7c1.4,0.1,2.8-0.3,4.1-1c1.1-0.7,1.9-1.6,2.4-2.8
			c0.6-1.2,0.8-2.6,0.8-3.9C14.3,7.1,14,5.8,13.5,4.6z"/>
		<path class="st0" d="M24.7,12.7h2.7c-0.2,1.1-0.7,2.1-1.6,2.7c-1.2,0.9-2.7,1.3-4.2,1.1c-1.7,0.1-3.4-0.5-4.5-1.7
			c-1-1.3-1.5-2.8-1.5-4.4c0-1.1,0.2-2.1,0.7-3.1c0.4-0.9,1.1-1.7,2-2.2c1-0.6,2.2-0.9,3.3-0.8c1.1,0,2.3,0.2,3.3,0.8
			c0.8,0.5,1.5,1.3,1.9,2.2c0.4,1,0.6,2,0.6,3.1c0,0.3,0,0.6-0.1,0.9h-9c0,1,0.3,1.9,1,2.6c0.7,0.5,1.5,0.8,2.3,0.8
			C23.3,14.5,24.3,13.9,24.7,12.7z M19.4,7c-0.6,0.6-1,1.5-1,2.3h6.2c-0.1-2-1.1-3-3-3C20.9,6.3,20.1,6.5,19.4,7z"/>
		<path class="st0" d="M38.1,12.7h2.7c-0.2,1.1-0.7,2.1-1.6,2.7c-1.2,0.9-2.7,1.3-4.2,1.1c-1.7,0.1-3.4-0.5-4.5-1.7
			c-1-1.3-1.6-2.8-1.5-4.4c0-1.1,0.2-2.1,0.7-3.1c0.4-0.9,1.1-1.7,2-2.2c1-0.6,2.2-0.9,3.4-0.8c1.1,0,2.3,0.2,3.2,0.8
			c0.8,0.5,1.5,1.3,1.9,2.2c0.4,1,0.6,2,0.6,3.1c0,0.3,0,0.6-0.1,0.9h-9c0,1,0.3,1.9,1,2.6c0.7,0.5,1.5,0.8,2.3,0.8
			C36.7,14.5,37.7,13.9,38.1,12.7z M32.9,7c-0.6,0.6-1,1.5-1,2.3h6.3c-0.1-2-1.1-3-3-3C34.3,6.3,33.5,6.5,32.9,7z"/>
		<path class="st0" d="M54,6c0.9,1.3,1.4,2.8,1.3,4.4c0.1,1.6-0.4,3.2-1.3,4.4c-1,1.2-2.5,1.8-4,1.7c-0.9,0-1.8-0.2-2.6-0.6
			c-0.7-0.4-1.3-0.9-1.7-1.6v6.5h-2.9V4.6h2.9v1.8C46.7,5,48.3,4.1,50,4.3C51.6,4.2,53.1,4.8,54,6z M51.8,13.4
			c0.6-0.9,0.8-1.9,0.8-3c0.1-1-0.2-2.1-0.8-2.9c-0.6-0.7-1.6-1-2.5-0.9c-1-0.1-1.9,0.3-2.6,1c-0.6,0.8-0.9,1.9-0.8,2.9
			c-0.1,1.1,0.2,2.1,0.8,2.9c0.7,0.7,1.6,1.1,2.6,1C50.2,14.5,51.1,14.1,51.8,13.4L51.8,13.4z"/>
		<path class="st0" d="M77.8,0.8v15.4h-5l-5.4-11c-0.4-0.8-0.7-1.6-1-2.4v13.4h-2.9V0.8h5l5.4,11.1c0.3,0.7,0.7,1.5,0.9,2.3V0.8
			H77.8z"/>
		<path class="st0" d="M81.1,15.6c-0.7-0.6-1.1-1.5-1-2.5c0-0.9,0.3-1.7,0.8-2.3c0.8-0.7,1.8-1.1,2.8-1.2l2.8-0.5
			c0.4,0,0.8-0.2,1.2-0.4c0.2-0.2,0.4-0.5,0.3-0.8c0-0.4-0.2-0.9-0.5-1.1c-0.5-0.3-1.2-0.5-1.8-0.4c-1.7,0-2.6,0.7-2.6,2h-2.9
			c0-1.2,0.5-2.3,1.5-3c1.2-0.8,2.5-1.2,3.9-1.1c1.3-0.1,2.6,0.3,3.7,1c0.9,0.7,1.4,1.7,1.3,2.8v5.4c0,0.8,0,1.8,0.1,2.8h-2.6
			c-0.1-0.8-0.1-1.7-0.1-2.5c-0.3,0.8-0.8,1.5-1.5,2c-0.8,0.6-1.8,0.8-2.8,0.8C82.9,16.5,81.9,16.2,81.1,15.6z M87.2,13.4
			c0.6-0.8,0.9-1.8,0.9-2.8V10c-0.3,0.2-0.5,0.4-0.8,0.5c-0.4,0.1-0.8,0.2-1.2,0.3l-1.3,0.3c-0.5,0.1-1,0.3-1.5,0.7
			c-0.3,0.3-0.5,0.7-0.4,1.1c0,0.4,0.2,0.9,0.5,1.1c0.4,0.3,0.9,0.4,1.3,0.4C85.7,14.5,86.6,14.1,87.2,13.4z"/>
		<path class="st0" d="M95.9,15.8c-0.5-0.2-1-0.7-1.2-1.2c-0.3-0.7-0.4-1.4-0.4-2.2V6.8h-2.1V5.4l2.4-0.9L95.8,2h1.5v2.6h3.5v2.2
			h-3.5v7.1h3.2v2.3h-2.2C97.4,16.2,96.6,16.1,95.9,15.8z"/>
		<path class="st0" d="M113.9,4.6v11.6h-2.9v-2.4c-0.6,1.7-2.3,2.8-4.1,2.7c-2.9,0-4.3-1.6-4.3-4.8V4.6h2.9v6.8
			c-0.1,0.8,0.2,1.6,0.6,2.2c0.5,0.5,1.2,0.7,1.8,0.6c0.9,0.1,1.8-0.4,2.3-1.2c0.6-1,0.9-2.2,0.8-3.4V4.6H113.9z"/>
		<path class="st0" d="M123.9,4.4v2.8h-0.9c-1-0.1-2.1,0.3-2.7,1.1c-0.6,1-0.8,2.2-0.8,3.4v4.5h-2.9V4.6h2.8v2.7
			c0.4-1.7,2.1-2.9,3.8-2.9L123.9,4.4z"/>
		<path class="st0" d="M125.8,15.6c-0.7-0.6-1.1-1.5-1-2.5c0-0.9,0.3-1.7,0.8-2.3c0.8-0.7,1.8-1.1,2.8-1.2l2.8-0.5
			c0.4,0,0.8-0.2,1.2-0.4c0.2-0.2,0.4-0.5,0.3-0.8c0-0.4-0.2-0.9-0.5-1.1c-0.5-0.3-1.2-0.5-1.8-0.4c-1.7,0-2.6,0.7-2.6,2h-2.8
			c0-1.2,0.5-2.3,1.4-3c1.2-0.8,2.5-1.2,3.9-1.1c1.3-0.1,2.6,0.3,3.7,1c0.9,0.7,1.3,1.7,1.3,2.8v5.4c0,0.8,0,1.8,0.1,2.8h-2.5
			c-0.1-0.8-0.1-1.7-0.1-2.5c-0.3,0.8-0.8,1.5-1.5,2c-0.8,0.6-1.8,0.8-2.8,0.8C127.6,16.5,126.6,16.2,125.8,15.6z M131.9,13.4
			c0.6-0.8,0.9-1.8,0.9-2.8V10c-0.3,0.2-0.5,0.4-0.8,0.5c-0.4,0.1-0.8,0.2-1.1,0.3l-1.3,0.3c-0.5,0.1-1,0.3-1.5,0.7
			c-0.3,0.3-0.5,0.7-0.4,1.1c0,0.4,0.2,0.9,0.5,1.1c0.4,0.3,0.9,0.4,1.3,0.4C130.4,14.5,131.3,14.1,131.9,13.4z"/>
		<path class="st0" d="M141,0v16.2h-2.9V0H141z"/>
	</g>
</g>
<g>
	<path class="st0" d="M160.8,12.8h-7.2l-1.2,3.4h-3L155,0.8h4.5l5.6,15.4h-3L160.8,12.8z M159.9,10.5l-2.8-7.6l-2.8,7.6L159.9,10.5z
		"/>
	<path class="st0" d="M177.1,5.5c0.7,1,1.1,2.3,1,3.6v7.2h-2.9V9.4c0.1-0.8-0.1-1.5-0.6-2.1c-0.5-0.4-1.1-0.7-1.8-0.6
		c-0.9-0.1-1.8,0.3-2.4,1.1c-0.6,1-0.9,2.2-0.8,3.4v5.1h-2.9V4.6h2.9v2.5c0.6-1.8,2.3-2.9,4.2-2.8C175,4.1,176.2,4.6,177.1,5.5z"/>
	<path class="st0" d="M182.6,15.8c-0.9-0.5-1.6-1.3-2.1-2.2c-0.5-1-0.7-2.1-0.7-3.1c0-1.1,0.2-2.1,0.7-3.1c0.4-0.9,1.2-1.7,2.1-2.2
		c1.1-0.6,2.3-0.9,3.5-0.8c1.2,0,2.4,0.2,3.5,0.8c0.9,0.5,1.6,1.3,2.1,2.2c0.5,1,0.7,2,0.7,3.1c0,1.1-0.2,2.1-0.7,3.1
		c-0.4,0.9-1.2,1.7-2.1,2.2c-1.1,0.6-2.3,0.9-3.5,0.8C184.9,16.6,183.7,16.3,182.6,15.8z M183.6,13.4c0.7,0.7,1.6,1,2.5,0.9
		c0.9,0.1,1.9-0.2,2.5-0.9c0.6-0.9,0.9-1.9,0.8-3c0.1-1.1-0.2-2.1-0.8-3c-0.7-0.7-1.6-1-2.5-0.9c-0.9-0.1-1.9,0.2-2.5,0.9
		c-0.6,0.9-0.9,1.9-0.8,3C182.7,11.5,183,12.5,183.6,13.4z"/>
	<path class="st0" d="M204.6,5.5c0.7,1,1.1,2.3,1,3.6v7.2h-2.9V9.4c0.1-0.8-0.1-1.5-0.6-2.1c-0.5-0.4-1.1-0.7-1.8-0.6
		c-0.9-0.1-1.8,0.3-2.4,1.1c-0.6,1-0.9,2.2-0.8,3.4v5.1h-2.9V4.6h2.9v2.5c0.6-1.8,2.3-2.9,4.2-2.8C202.5,4.1,203.7,4.6,204.6,5.5z"
		/>
	<path class="st0" d="M218.9,4.6l-4.5,12.3c-0.2,0.8-0.6,1.6-1,2.3c-0.3,0.5-0.8,1-1.4,1.2c-0.8,0.3-1.6,0.4-2.4,0.4h-2.5v-2.3h4
		l0.9-2.5h-1.4l-4.2-11.5h3l2.8,7.8l0.5,1.6l0.5-1.7l2.8-7.8L218.9,4.6z"/>
	<path class="st0" d="M238.5,5.5c0.7,1,1.1,2.3,1,3.6v7.2h-2.8V9.4c0.1-0.7-0.1-1.5-0.6-2.1c-0.4-0.5-1.1-0.7-1.7-0.7
		c-0.9-0.1-1.7,0.4-2.2,1.1c-0.6,1-0.8,2.2-0.8,3.4v5.1h-2.8V9.4c0.1-0.7-0.1-1.5-0.6-2.1c-0.4-0.5-1.1-0.7-1.7-0.7
		c-0.9-0.1-1.7,0.4-2.2,1.1c-0.6,1.1-0.8,2.2-0.7,3.4v5.1h-2.9V4.6h2.9V7c0.6-1.7,2.2-2.8,4-2.7c1.8-0.2,3.4,1.1,3.8,2.9
		c0.6-1.8,2.3-3,4.2-2.9C236.6,4.2,237.7,4.6,238.5,5.5z"/>
	<path class="st0" d="M245.4,0.8V3H242V0.8L245.4,0.8z M245.2,4.6v11.6h-2.9V4.6H245.2z"/>
	<path class="st0" d="M258.2,14.1v2.1h-10.6v-2.1l7.1-7.3h-7V4.6h10.4v2.1l-7.1,7.3L258.2,14.1z"/>
	<path class="st0" d="M261,15.6c-0.7-0.6-1.1-1.5-1-2.5c0-0.9,0.3-1.7,0.8-2.3c0.8-0.7,1.8-1.1,2.9-1.2l2.7-0.5
		c0.4,0,0.8-0.2,1.2-0.4c0.2-0.2,0.4-0.5,0.3-0.8c0-0.4-0.2-0.9-0.5-1.1c-0.5-0.3-1.2-0.5-1.8-0.4c-1.7,0-2.5,0.7-2.6,2h-2.8
		c0-1.2,0.5-2.3,1.5-3c1.2-0.8,2.5-1.2,3.9-1.1c1.3-0.1,2.6,0.3,3.7,1c0.9,0.7,1.3,1.7,1.3,2.8v5.4c0,0.8,0,1.8,0.1,2.8h-2.5
		c-0.1-0.8-0.1-1.7-0.1-2.6c-0.3,0.8-0.8,1.5-1.5,2c-0.8,0.6-1.8,0.9-2.8,0.8C262.8,16.6,261.8,16.2,261,15.6z M267.1,13.4
		c0.6-0.8,0.9-1.8,0.9-2.8V10c-0.3,0.2-0.5,0.4-0.8,0.5c-0.4,0.1-0.8,0.2-1.1,0.3l-1.3,0.3c-0.5,0.1-1,0.3-1.5,0.7
		c-0.3,0.3-0.5,0.7-0.4,1.1c0,0.4,0.2,0.9,0.5,1.2c0.4,0.3,0.9,0.4,1.3,0.4C265.5,14.5,266.5,14.1,267.1,13.4z"/>
	<path class="st0" d="M275.7,15.8c-0.5-0.2-1-0.7-1.2-1.2c-0.3-0.7-0.4-1.4-0.4-2.2V6.8H272V5.4l2.4-0.9l1.2-2.5h1.5v2.7h3.5v2.2
		h-3.5V14h3.2v2.3H278C277.2,16.3,276.5,16.1,275.7,15.8z"/>
	<path class="st0" d="M285.8,0.8V3h-3.3V0.8L285.8,0.8z M285.6,4.6v11.6h-2.9V4.6H285.6z"/>
	<path class="st0" d="M290.6,15.8c-0.9-0.5-1.6-1.3-2.1-2.2c-0.5-1-0.7-2.1-0.7-3.1c0-1.1,0.2-2.1,0.7-3.1c0.4-0.9,1.2-1.7,2.1-2.2
		c2.2-1.1,4.8-1.1,6.9,0c0.9,0.5,1.6,1.3,2.1,2.2c0.5,1,0.7,2,0.7,3.1c0,1.1-0.2,2.1-0.7,3.1c-0.4,0.9-1.2,1.7-2.1,2.2
		C295.3,16.8,292.8,16.8,290.6,15.8L290.6,15.8z M291.5,13.4c1.5,1.2,3.6,1.2,5.1,0c0.6-0.9,0.9-1.9,0.8-3c0.1-1.1-0.2-2.1-0.8-3
		c-1.5-1.2-3.6-1.2-5.1,0c-0.6,0.9-0.9,1.9-0.8,3C290.6,11.5,290.9,12.5,291.5,13.4L291.5,13.4z"/>
	<path class="st0" d="M312.6,5.5c0.7,1,1.1,2.3,1,3.6v7.2h-2.9V9.4c0.1-0.8-0.1-1.5-0.6-2.1c-0.5-0.4-1.1-0.7-1.8-0.6
		c-0.9-0.1-1.8,0.3-2.4,1.1c-0.6,1-0.9,2.2-0.8,3.4v5.1h-2.9V4.6h2.9v2.5c0.6-1.8,2.3-2.9,4.2-2.8C310.5,4.1,311.7,4.6,312.6,5.5z"
		/>
</g>
</svg>
