<?xml version="1.0" encoding="utf-8"?>
<!-- Generator: Adobe Illustrator 24.1.0, SVG Export Plug-In . SVG Version: 6.00 Build 0)  -->
<svg version="1.1" id="Ebene_1" xmlns="http://www.w3.org/2000/svg" xmlns:xlink="http://www.w3.org/1999/xlink" x="0px" y="0px"
	 viewBox="0 0 149.4 16.8" style="enable-background:new 0 0 149.4 16.8;" xml:space="preserve">
<style type="text/css">
	.st0{fill:#23285A;}
</style>
<g id="Ebene_2_1_">
	<g id="Brighter_AI">
		<path class="st0" d="M11.4,2.4c-0.9-1-2.3-1.5-3.6-1.4H0v15.4h3v-5.7l0,0V8.3l0,0v-5h3.9c1.7,0,2.6,0.8,2.6,2.5
			c0,0.7-0.2,1.3-0.6,1.8c-0.5,0.5-1.3,0.7-2,0.7H5.9v2.3h1.8c1.4,0.1,2.7-0.4,3.6-1.4c0.8-1,1.3-2.2,1.2-3.5
			C12.6,4.5,12.2,3.3,11.4,2.4z"/>
		<path class="st0" d="M21.4,4.6v2.8h-0.9c-1-0.1-2.1,0.3-2.7,1.1c-0.6,1-0.8,2.2-0.8,3.4v4.5h-2.9V4.8H17v2.7
			c0.4-1.7,2-2.9,3.8-2.9L21.4,4.6z"/>
		<path class="st0" d="M31.5,12.9h2.7C34,14,33.4,15,32.6,15.6c-1.2,0.8-2.7,1.3-4.2,1.1c-1.7,0.1-3.4-0.5-4.5-1.8
			c-1-1.2-1.5-2.8-1.5-4.4c0-1.1,0.2-2.1,0.7-3.1c0.4-0.9,1.1-1.7,2-2.2c1-0.6,2.2-0.9,3.4-0.8c1.1,0,2.3,0.2,3.2,0.8
			c0.9,0.5,1.5,1.3,1.9,2.1c0.4,1,0.6,2,0.6,3.1c0,0.3,0,0.6-0.1,0.9h-9c0,1,0.3,1.9,1,2.6c0.7,0.5,1.5,0.8,2.3,0.8
			C30.1,14.7,31.1,14.1,31.5,12.9z M26.2,7.2c-0.6,0.6-1,1.5-1,2.3h6.2c-0.1-2-1.1-3-3-3C27.7,6.4,26.9,6.7,26.2,7.2z"/>
		<path class="st0" d="M36.5,7.5c0.5-0.9,1.2-1.7,2.1-2.2c1-0.6,2.2-0.9,3.4-0.8c1.5-0.1,3,0.4,4.2,1.4c1,0.9,1.6,2.2,1.6,3.5H45
			c-0.1-0.7-0.4-1.4-0.8-1.9c-0.6-0.5-1.4-0.8-2.2-0.7c-0.9-0.1-1.8,0.3-2.5,0.9c-0.7,0.9-1,1.9-0.9,3c-0.1,1.1,0.2,2.1,0.8,3
			c0.7,0.6,1.6,1,2.5,0.9c0.8,0.1,1.6-0.2,2.2-0.7c0.5-0.5,0.9-1.2,0.9-2h2.8c0,0.9-0.3,1.7-0.7,2.5c-0.5,0.8-1.2,1.4-2,1.8
			c-1,0.5-2.1,0.7-3.2,0.7c-1.2,0.1-2.4-0.2-3.4-0.7c-0.9-0.5-1.6-1.3-2.1-2.2c-0.5-1-0.7-2-0.7-3.1C35.8,9.6,36,8.5,36.5,7.5z"/>
		<path class="st0" d="M53.1,1v2.2h-3.3V1H53.1z M52.9,4.8v11.6H50V4.8H52.9z"/>
		<path class="st0" d="M58.5,14.2c0.6,0.5,1.4,0.7,2.2,0.6c0.6,0.1,1.2-0.1,1.8-0.4c0.4-0.3,0.6-0.7,0.5-1.2c0-0.4-0.1-0.7-0.4-1
			c-0.4-0.3-0.8-0.5-1.3-0.5l-2.7-0.4c-0.9-0.1-1.7-0.4-2.4-1.1c-0.6-0.6-0.9-1.4-0.8-2.2C55.3,7,55.8,6,56.7,5.4
			c1.1-0.7,2.4-1,3.7-1c1.3-0.1,2.6,0.3,3.7,1c0.9,0.6,1.5,1.6,1.5,2.8h-2.8c0-0.5-0.3-1-0.7-1.3c-0.5-0.4-1.2-0.5-1.8-0.5
			c-0.6,0-1.2,0.1-1.7,0.4C58.2,7,58,7.4,58,7.8c0,0.7,0.5,1.2,1.5,1.3L62,9.5c1.1,0.1,2.1,0.5,2.9,1.2c0.6,0.6,0.9,1.5,0.8,2.4
			c0,2.5-1.7,3.7-5.2,3.7c-1.5,0.1-3-0.3-4.2-1.2c-0.9-0.7-1.4-1.8-1.4-3h2.6C57.7,13.2,58,13.8,58.5,14.2z"/>
		<path class="st0" d="M71.1,1v2.2h-3.3V1H71.1z M70.9,4.8v11.6H68V4.8H70.9z"/>
		<path class="st0" d="M75.7,16c-0.9-0.5-1.6-1.3-2-2.2c-0.5-1-0.7-2.1-0.7-3.2c0-1.1,0.2-2.1,0.7-3.1c0.4-0.9,1.1-1.7,2-2.2
			c1.1-0.6,2.3-0.9,3.5-0.8c1.2,0,2.4,0.2,3.5,0.8c0.9,0.5,1.6,1.3,2.1,2.2c0.5,1,0.7,2,0.7,3.1c0,1.1-0.2,2.1-0.7,3.1
			c-0.4,0.9-1.2,1.7-2.1,2.2C80.4,17.1,77.8,17.1,75.7,16L75.7,16z M76.7,13.7c0.7,0.7,1.6,1,2.5,0.9c0.9,0.1,1.9-0.2,2.5-0.9
			c0.6-0.9,0.9-1.9,0.8-3c0.1-1.1-0.2-2.1-0.8-3c-0.7-0.7-1.6-1-2.5-0.9c-0.9-0.1-1.9,0.2-2.5,0.9c-0.6,0.9-0.9,1.9-0.8,3
			C75.8,11.7,76.1,12.7,76.7,13.7L76.7,13.7z"/>
		<path class="st0" d="M97.6,5.7c0.7,1,1.1,2.3,1,3.6v7.1h-2.9V9.6c0.1-0.8-0.1-1.5-0.6-2.1C94.7,7,94,6.8,93.4,6.8
			c-0.9-0.1-1.8,0.4-2.4,1.1c-0.6,1-0.9,2.2-0.8,3.4v5.1h-2.9V4.8h2.9v2.5c0.6-1.8,2.3-2.9,4.2-2.8C95.6,4.3,96.8,4.8,97.6,5.7z"/>
	</g>
</g>
<g>
	<path class="st0" d="M118.8,9.7c0.6,0.7,1,1.7,0.9,2.6c0.1,1.2-0.4,2.3-1.3,3.1c-1,0.8-2.3,1.2-3.7,1.1h-8.1V1.1h8.2
		c1.2-0.1,2.4,0.2,3.4,1c0.7,0.7,1.2,1.7,1.1,2.7c0.1,0.9-0.3,1.8-0.9,2.5c-0.6,0.6-1.4,1-2.2,1.2C117.3,8.6,118.2,9,118.8,9.7z
		 M109.7,3.3v4.1h4.2c0.7,0.1,1.3-0.1,1.9-0.5c0.4-0.4,0.6-1,0.6-1.6c0-0.6-0.1-1.1-0.5-1.5c-0.5-0.4-1.1-0.6-1.7-0.5H109.7z
		 M116.1,13.5c0.4-0.5,0.6-1,0.6-1.6c0-1.6-0.9-2.3-2.7-2.3h-4.2v4.6h4.5C114.9,14.2,115.6,14,116.1,13.5z"/>
	<path class="st0" d="M125,0.2v16.2h-2.9V0.2H125z"/>
	<path class="st0" d="M139.2,4.9v11.6h-2.9v-2.4c-0.6,1.7-2.3,2.8-4.1,2.7c-2.9,0-4.3-1.6-4.3-4.8V4.9h2.9v6.8
		c-0.1,0.8,0.2,1.6,0.6,2.2c0.5,0.5,1.2,0.7,1.8,0.6c0.9,0,1.8-0.4,2.3-1.2c0.6-1,0.9-2.2,0.8-3.4V4.9H139.2z"/>
	<path class="st0" d="M149.4,4.7v2.8h-0.9c-1-0.1-2.1,0.3-2.7,1.1c-0.6,1-0.8,2.2-0.8,3.4v4.5h-2.9V4.9h2.8v2.7
		c0.4-1.7,2-2.9,3.8-2.9H149.4z"/>
</g>
</svg>
