<svg xmlns="http://www.w3.org/2000/svg" width="66.36" height="72.07" viewBox="0 0 66.36 72.07"><path d="M63.92,54.02a5.042,5.042,0,0,0,.93-2.88c0-3.29-2.96-5.05-7.45-5.95-5.45-1.09-7.45-2.67-7.45-5.95s3.34-5.95,7.45-5.95,7.45,2.67,7.45,5.95" fill="none" stroke="#7d87ff" stroke-width="3"/><path d="M49.94,57.06c0,3.29,3.34,5.95,7.46,5.95s7.46-2.67,7.46-5.96S61.9,52,57.41,51.1c-5.45-1.09-7.45-2.67-7.45-5.95a4.846,4.846,0,0,1,.57-2.28" fill="none" stroke="#7d87ff" stroke-width="3"/><path d="M59.11,70.57H1.5V1.5H57.4V25.52" fill="none" stroke="#7d87ff" stroke-width="3"/><line x2="39.57" transform="translate(9.65 12.83)" fill="none" stroke="#7d87ff" stroke-width="3"/><line x2="39.57" transform="translate(9.65 22.8)" fill="none" stroke="#7d87ff" stroke-width="3"/><line x2="32.05" transform="translate(9.65 32.87)" fill="none" stroke="#7d87ff" stroke-width="3"/><line x2="32.05" transform="translate(9.65 42.64)" fill="none" stroke="#7d87ff" stroke-width="3"/><line x2="32.05" transform="translate(9.65 52.43)" fill="none" stroke="#7d87ff" stroke-width="3"/></svg>