<svg xmlns="http://www.w3.org/2000/svg" xmlns:xlink="http://www.w3.org/1999/xlink" width="80" height="80" viewBox="0 0 80 80"><defs><clipPath id="a"><path d="M0,0H80V-80H0Z" fill="none"/></clipPath></defs><g transform="translate(0 80)"><path d="M0,0H80V-80H0Z" fill="#82efd6"/><g clip-path="url(#a)"><g transform="translate(55.748 -23.378)"><path d="M0,0V-4.909a5.905,5.905,0,0,0-5.9-5.922H-25.543a5.93,5.93,0,0,0-5.923,5.923V0h4.387V-6.445H-4.386V0ZM.4-43.988H-45.28V10.747h4.6v-50.13H.4Zm13.385,0-4.6,0V6.146l-40.645,0v4.6H13.785ZM-6.067-25.107a9.683,9.683,0,0,0-9.672-9.672,9.682,9.682,0,0,0-9.671,9.672,9.681,9.681,0,0,0,9.671,9.671,9.682,9.682,0,0,0,9.672-9.671m-14.949,0a5.283,5.283,0,0,1,5.277-5.277,5.283,5.283,0,0,1,5.277,5.277,5.283,5.283,0,0,1-5.277,5.277,5.284,5.284,0,0,1-5.277-5.277" fill="#22285a"/></g></g></g></svg>