<svg xmlns="http://www.w3.org/2000/svg" width="69.51" height="72.23" viewBox="0 0 69.51 72.23"><g transform="translate(0 0.01)"><path d="M43.7,65.12" fill="none" stroke="#7d87ff" stroke-miterlimit="10" stroke-width="3"/><path d="M13.51,66.75" fill="none" stroke="#7d87ff" stroke-miterlimit="10" stroke-width="3"/><path d="M43.65,65.12" fill="none" stroke="#7d87ff" stroke-miterlimit="10" stroke-width="3"/><path d="M18.36,20.98A11.489,11.489,0,0,1,29.91,9.5a12.2,12.2,0,0,1,2.11.14,14.19,14.19,0,0,1,25.53-.31,9.1,9.1,0,0,1,1.58-.15,8.95,8.95,0,0,1,0,17.9,8.774,8.774,0,0,1-4.17-1.05,13.776,13.776,0,0,1-9.95,4.25" fill="none" stroke="#7d87ff" stroke-width="3"/><path d="M42.09,40.72H1.5V52.56H40.53V45.25" fill="none" stroke="#7d87ff" stroke-miterlimit="10" stroke-width="3"/><line x2="18.11" transform="translate(6.03 46.64)" fill="none" stroke="#7d87ff" stroke-width="3"/><path d="M42.09,58.6H1.5V70.72H40.53V63.27" fill="none" stroke="#7d87ff" stroke-miterlimit="10" stroke-width="3"/><line x2="18.11" transform="translate(6.03 64.66)" fill="none" stroke="#7d87ff" stroke-width="3"/><path d="M42.09,22.77H1.5V34.6H40.53V27.23" fill="none" stroke="#7d87ff" stroke-miterlimit="10" stroke-width="3"/><line x2="18.11" transform="translate(6.03 28.68)" fill="none" stroke="#7d87ff" stroke-width="3"/><line x2="14.23" transform="translate(13.51 19.7)" fill="none" stroke="#d9fbed" stroke-width="3"/></g></svg>