<svg version="1.1" id="Ebene_1" xmlns="http://www.w3.org/2000/svg" x="0" y="0" viewBox="0 0 313.6 20.8" xml:space="preserve"><style>.st0{fill:#23285a}</style><g id="Ebene_2_1_"><g id="Brighter_AI"><path class="st0" d="M13.5 4.6c-.5-1.1-1.4-2.1-2.4-2.8-1.3-.7-2.7-1-4.1-1H0v15.4h3v-13h3.4c1.4-.1 2.7.3 3.7 1.3.8 1.2 1.2 2.6 1.1 4 .1 1.4-.3 2.8-1.1 4-1 1-2.3 1.5-3.7 1.3h-.5v2.4H7c1.4.1 2.8-.3 4.1-1 1.1-.7 1.9-1.6 2.4-2.8.6-1.2.8-2.6.8-3.9 0-1.4-.3-2.7-.8-3.9zM24.7 12.7h2.7c-.2 1.1-.7 2.1-1.6 2.7-1.2.9-2.7 1.3-4.2 1.1-1.7.1-3.4-.5-4.5-1.7-1-1.3-1.5-2.8-1.5-4.4 0-1.1.2-2.1.7-3.1.4-.9 1.1-1.7 2-2.2 1-.6 2.2-.9 3.3-.8 1.1 0 2.3.2 3.3.8.8.5 1.5 1.3 1.9 2.2.4 1 .6 2 .6 3.1 0 .3 0 .6-.1.9h-9c0 1 .3 1.9 1 2.6.7.5 1.5.8 2.3.8 1.7-.2 2.7-.8 3.1-2zM19.4 7c-.6.6-1 1.5-1 2.3h6.2c-.1-2-1.1-3-3-3-.7 0-1.5.2-2.2.7zM38.1 12.7h2.7c-.2 1.1-.7 2.1-1.6 2.7-1.2.9-2.7 1.3-4.2 1.1-1.7.1-3.4-.5-4.5-1.7-1-1.3-1.6-2.8-1.5-4.4 0-1.1.2-2.1.7-3.1.4-.9 1.1-1.7 2-2.2 1-.6 2.2-.9 3.4-.8 1.1 0 2.3.2 3.2.8.8.5 1.5 1.3 1.9 2.2.4 1 .6 2 .6 3.1 0 .3 0 .6-.1.9h-9c0 1 .3 1.9 1 2.6.7.5 1.5.8 2.3.8 1.7-.2 2.7-.8 3.1-2zM32.9 7c-.6.6-1 1.5-1 2.3h6.3c-.1-2-1.1-3-3-3-.9 0-1.7.2-2.3.7zM54 6c.9 1.3 1.4 2.8 1.3 4.4.1 1.6-.4 3.2-1.3 4.4-1 1.2-2.5 1.8-4 1.7-.9 0-1.8-.2-2.6-.6-.7-.4-1.3-.9-1.7-1.6v6.5h-2.9V4.6h2.9v1.8c1-1.4 2.6-2.3 4.3-2.1 1.6-.1 3.1.5 4 1.7zm-2.2 7.4c.6-.9.8-1.9.8-3 .1-1-.2-2.1-.8-2.9-.6-.7-1.6-1-2.5-.9-1-.1-1.9.3-2.6 1-.6.8-.9 1.9-.8 2.9-.1 1.1.2 2.1.8 2.9.7.7 1.6 1.1 2.6 1 .9.1 1.8-.3 2.5-1zM77.8.8v15.4h-5l-5.4-11c-.4-.8-.7-1.6-1-2.4v13.4h-2.9V.8h5l5.4 11.1c.3.7.7 1.5.9 2.3V.8h3zM81.1 15.6c-.7-.6-1.1-1.5-1-2.5 0-.9.3-1.7.8-2.3.8-.7 1.8-1.1 2.8-1.2l2.8-.5c.4 0 .8-.2 1.2-.4.2-.2.4-.5.3-.8 0-.4-.2-.9-.5-1.1-.5-.3-1.2-.5-1.8-.4-1.7 0-2.6.7-2.6 2h-2.9c0-1.2.5-2.3 1.5-3 1.2-.8 2.5-1.2 3.9-1.1 1.3-.1 2.6.3 3.7 1 .9.7 1.4 1.7 1.3 2.8v5.4c0 .8 0 1.8.1 2.8h-2.6c-.1-.8-.1-1.7-.1-2.5-.3.8-.8 1.5-1.5 2-.8.6-1.8.8-2.8.8-.8-.1-1.8-.4-2.6-1zm6.1-2.2c.6-.8.9-1.8.9-2.8V10c-.3.2-.5.4-.8.5l-1.2.3-1.3.3c-.5.1-1 .3-1.5.7-.3.3-.5.7-.4 1.1 0 .4.2.9.5 1.1.4.3.9.4 1.3.4 1 .1 1.9-.3 2.5-1zM95.9 15.8c-.5-.2-1-.7-1.2-1.2-.3-.7-.4-1.4-.4-2.2V6.8h-2.1V5.4l2.4-.9L95.8 2h1.5v2.6h3.5v2.2h-3.5v7.1h3.2v2.3h-2.2c-.9 0-1.7-.1-2.4-.4zM113.9 4.6v11.6H111v-2.4c-.6 1.7-2.3 2.8-4.1 2.7-2.9 0-4.3-1.6-4.3-4.8V4.6h2.9v6.8c-.1.8.2 1.6.6 2.2.5.5 1.2.7 1.8.6.9.1 1.8-.4 2.3-1.2.6-1 .9-2.2.8-3.4v-5h2.9zM123.9 4.4v2.8h-.9c-1-.1-2.1.3-2.7 1.1-.6 1-.8 2.2-.8 3.4v4.5h-2.9V4.6h2.8v2.7c.4-1.7 2.1-2.9 3.8-2.9h.7zM125.8 15.6c-.7-.6-1.1-1.5-1-2.5 0-.9.3-1.7.8-2.3.8-.7 1.8-1.1 2.8-1.2l2.8-.5c.4 0 .8-.2 1.2-.4.2-.2.4-.5.3-.8 0-.4-.2-.9-.5-1.1-.5-.3-1.2-.5-1.8-.4-1.7 0-2.6.7-2.6 2H125c0-1.2.5-2.3 1.4-3 1.2-.8 2.5-1.2 3.9-1.1 1.3-.1 2.6.3 3.7 1 .9.7 1.3 1.7 1.3 2.8v5.4c0 .8 0 1.8.1 2.8h-2.5c-.1-.8-.1-1.7-.1-2.5-.3.8-.8 1.5-1.5 2-.8.6-1.8.8-2.8.8-.9-.1-1.9-.4-2.7-1zm6.1-2.2c.6-.8.9-1.8.9-2.8V10c-.3.2-.5.4-.8.5-.4.1-.8.2-1.1.3l-1.3.3c-.5.1-1 .3-1.5.7-.3.3-.5.7-.4 1.1 0 .4.2.9.5 1.1.4.3.9.4 1.3.4.9.1 1.8-.3 2.4-1zM141 0v16.2h-2.9V0h2.9z"/></g></g><path class="st0" d="M160.8 12.8h-7.2l-1.2 3.4h-3L155 .8h4.5l5.6 15.4h-3l-1.3-3.4zm-.9-2.3l-2.8-7.6-2.8 7.6h5.6zM177.1 5.5c.7 1 1.1 2.3 1 3.6v7.2h-2.9V9.4c.1-.8-.1-1.5-.6-2.1-.5-.4-1.1-.7-1.8-.6-.9-.1-1.8.3-2.4 1.1-.6 1-.9 2.2-.8 3.4v5.1h-2.9V4.6h2.9v2.5c.6-1.8 2.3-2.9 4.2-2.8 1.2-.2 2.4.3 3.3 1.2zM182.6 15.8c-.9-.5-1.6-1.3-2.1-2.2-.5-1-.7-2.1-.7-3.1 0-1.1.2-2.1.7-3.1.4-.9 1.2-1.7 2.1-2.2 1.1-.6 2.3-.9 3.5-.8 1.2 0 2.4.2 3.5.8.9.5 1.6 1.3 2.1 2.2.5 1 .7 2 .7 3.1s-.2 2.1-.7 3.1c-.4.9-1.2 1.7-2.1 2.2-1.1.6-2.3.9-3.5.8-1.2 0-2.4-.3-3.5-.8zm1-2.4c.7.7 1.6 1 2.5.9.9.1 1.9-.2 2.5-.9.6-.9.9-1.9.8-3 .1-1.1-.2-2.1-.8-3-.7-.7-1.6-1-2.5-.9-.9-.1-1.9.2-2.5.9-.6.9-.9 1.9-.8 3-.1 1.1.2 2.1.8 3zM204.6 5.5c.7 1 1.1 2.3 1 3.6v7.2h-2.9V9.4c.1-.8-.1-1.5-.6-2.1-.5-.4-1.1-.7-1.8-.6-.9-.1-1.8.3-2.4 1.1-.6 1-.9 2.2-.8 3.4v5.1h-2.9V4.6h2.9v2.5c.6-1.8 2.3-2.9 4.2-2.8 1.2-.2 2.4.3 3.3 1.2zM218.9 4.6l-4.5 12.3c-.2.8-.6 1.6-1 2.3-.3.5-.8 1-1.4 1.2-.8.3-1.6.4-2.4.4h-2.5v-2.3h4l.9-2.5h-1.4l-4.2-11.5h3l2.8 7.8.5 1.6.5-1.7 2.8-7.8 2.9.2zM238.5 5.5c.7 1 1.1 2.3 1 3.6v7.2h-2.8V9.4c.1-.7-.1-1.5-.6-2.1-.4-.5-1.1-.7-1.7-.7-.9-.1-1.7.4-2.2 1.1-.6 1-.8 2.2-.8 3.4v5.1h-2.8V9.4c.1-.7-.1-1.5-.6-2.1-.4-.5-1.1-.7-1.7-.7-.9-.1-1.7.4-2.2 1.1-.6 1.1-.8 2.2-.7 3.4v5.1h-2.9V4.6h2.9V7c.6-1.7 2.2-2.8 4-2.7 1.8-.2 3.4 1.1 3.8 2.9.6-1.8 2.3-3 4.2-2.9 1.2-.1 2.3.3 3.1 1.2zM245.4.8V3H242V.8h3.4zm-.2 3.8v11.6h-2.9V4.6h2.9zM258.2 14.1v2.1h-10.6v-2.1l7.1-7.3h-7V4.6h10.4v2.1L251 14l7.2.1zM261 15.6c-.7-.6-1.1-1.5-1-2.5 0-.9.3-1.7.8-2.3.8-.7 1.8-1.1 2.9-1.2l2.7-.5c.4 0 .8-.2 1.2-.4.2-.2.4-.5.3-.8 0-.4-.2-.9-.5-1.1-.5-.3-1.2-.5-1.8-.4-1.7 0-2.5.7-2.6 2h-2.8c0-1.2.5-2.3 1.5-3 1.2-.8 2.5-1.2 3.9-1.1 1.3-.1 2.6.3 3.7 1 .9.7 1.3 1.7 1.3 2.8v5.4c0 .8 0 1.8.1 2.8h-2.5c-.1-.8-.1-1.7-.1-2.6-.3.8-.8 1.5-1.5 2-.8.6-1.8.9-2.8.8-1 .1-2-.3-2.8-.9zm6.1-2.2c.6-.8.9-1.8.9-2.8V10c-.3.2-.5.4-.8.5-.4.1-.8.2-1.1.3l-1.3.3c-.5.1-1 .3-1.5.7-.3.3-.5.7-.4 1.1 0 .4.2.9.5 1.2.4.3.9.4 1.3.4.8 0 1.8-.4 2.4-1.1zM275.7 15.8c-.5-.2-1-.7-1.2-1.2-.3-.7-.4-1.4-.4-2.2V6.8H272V5.4l2.4-.9 1.2-2.5h1.5v2.7h3.5v2.2h-3.5V14h3.2v2.3H278c-.8 0-1.5-.2-2.3-.5zM285.8.8V3h-3.3V.8h3.3zm-.2 3.8v11.6h-2.9V4.6h2.9zM290.6 15.8c-.9-.5-1.6-1.3-2.1-2.2-.5-1-.7-2.1-.7-3.1 0-1.1.2-2.1.7-3.1.4-.9 1.2-1.7 2.1-2.2 2.2-1.1 4.8-1.1 6.9 0 .9.5 1.6 1.3 2.1 2.2.5 1 .7 2 .7 3.1s-.2 2.1-.7 3.1c-.4.9-1.2 1.7-2.1 2.2-2.2 1-4.7 1-6.9 0zm.9-2.4c1.5 1.2 3.6 1.2 5.1 0 .6-.9.9-1.9.8-3 .1-1.1-.2-2.1-.8-3-1.5-1.2-3.6-1.2-5.1 0-.6.9-.9 1.9-.8 3-.1 1.1.2 2.1.8 3zM312.6 5.5c.7 1 1.1 2.3 1 3.6v7.2h-2.9V9.4c.1-.8-.1-1.5-.6-2.1-.5-.4-1.1-.7-1.8-.6-.9-.1-1.8.3-2.4 1.1-.6 1-.9 2.2-.8 3.4v5.1h-2.9V4.6h2.9v2.5c.6-1.8 2.3-2.9 4.2-2.8 1.2-.2 2.4.3 3.3 1.2z"/></svg>
