<svg xmlns="http://www.w3.org/2000/svg" viewBox="0 0 98.61 36.77"><defs><style>.cls-1{fill:#23285a;}</style></defs><g id="Ebene_2" data-name="Ebene 2"><g id="Brighter_AI" data-name="Brighter AI"><path class="cls-1" d="M11.37,1.36A4.58,4.58,0,0,0,7.74,0H0V15.4H3V9.68H3V7.34H3v-5H6.9c1.73,0,2.6.83,2.6,2.5a2.66,2.66,0,0,1-.62,1.84,2.6,2.6,0,0,1-2,.68H5.94V9.68h1.8a4.54,4.54,0,0,0,3.64-1.37,5.13,5.13,0,0,0,1.2-3.52A5,5,0,0,0,11.37,1.36Z"/><path class="cls-1" d="M21.4,3.64V6.42h-.86a3.06,3.06,0,0,0-2.71,1.1,6,6,0,0,0-.76,3.39V15.4H14.2V3.82H17V6.51a3.82,3.82,0,0,1,3.84-2.87Z"/><path class="cls-1" d="M31.47,11.9h2.71a4.29,4.29,0,0,1-1.59,2.73,6.43,6.43,0,0,1-4.17,1.14A5.67,5.67,0,0,1,23.88,14,6.62,6.62,0,0,1,22.4,9.59a7.22,7.22,0,0,1,.66-3.13,5.08,5.08,0,0,1,2-2.2,6.42,6.42,0,0,1,3.35-.81,6.16,6.16,0,0,1,3.25.8A4.83,4.83,0,0,1,33.6,6.4a7.23,7.23,0,0,1,.63,3.07,5.17,5.17,0,0,1-.07.91h-9a3.77,3.77,0,0,0,1,2.59,3.38,3.38,0,0,0,2.34.76C30.1,13.73,31.09,13.12,31.47,11.9ZM26.23,6.15a3.55,3.55,0,0,0-1,2.33h6.25c-.1-2-1.11-3-3-3A3.3,3.3,0,0,0,26.23,6.15Z"/><path class="cls-1" d="M36.51,6.5a5.21,5.21,0,0,1,2.06-2.23A6.6,6.6,0,0,1,42,3.45a6,6,0,0,1,4.23,1.36,4.81,4.81,0,0,1,1.59,3.53H45a3.11,3.11,0,0,0-.85-1.91A2.93,2.93,0,0,0,42,5.72a3.25,3.25,0,0,0-2.48.9,4.29,4.29,0,0,0-.86,3,4.36,4.36,0,0,0,.83,3A3.2,3.2,0,0,0,42,13.5a3,3,0,0,0,2.21-.74,3.12,3.12,0,0,0,.92-2h2.75a5.08,5.08,0,0,1-.72,2.49,4.85,4.85,0,0,1-2,1.81,6.8,6.8,0,0,1-3.16.68A6.62,6.62,0,0,1,38.58,15a5.27,5.27,0,0,1-2.07-2.22,7.13,7.13,0,0,1-.68-3.12A7.06,7.06,0,0,1,36.51,6.5Z"/><path class="cls-1" d="M53.1,0V2.2H49.77V0Zm-.23,3.82V15.4H50V3.82Z"/><path class="cls-1" d="M58.49,13.2a3.28,3.28,0,0,0,2.17.63,3,3,0,0,0,1.79-.4A1.35,1.35,0,0,0,63,12.28a1.34,1.34,0,0,0-.39-1,2.27,2.27,0,0,0-1.3-.5l-2.73-.39a3.94,3.94,0,0,1-2.4-1.06,3,3,0,0,1-.82-2.21,3.14,3.14,0,0,1,1.34-2.73,6.3,6.3,0,0,1,3.68-.95,6.32,6.32,0,0,1,3.69,1,3.55,3.55,0,0,1,1.52,2.75H62.83a1.8,1.8,0,0,0-.73-1.3,2.91,2.91,0,0,0-1.79-.49,3,3,0,0,0-1.72.4A1.22,1.22,0,0,0,58,6.83q0,1.11,1.5,1.32L62,8.48A4.83,4.83,0,0,1,64.9,9.63,3.31,3.31,0,0,1,65.75,12q0,3.73-5.17,3.73a6.28,6.28,0,0,1-4.16-1.17,3.84,3.84,0,0,1-1.39-3h2.64A2.22,2.22,0,0,0,58.49,13.2Z"/><path class="cls-1" d="M71.12,0V2.2H67.79V0Zm-.23,3.82V15.4H68V3.82Z"/><path class="cls-1" d="M75.71,15a5,5,0,0,1-2-2.22A7.3,7.3,0,0,1,73,9.59a7.12,7.12,0,0,1,.66-3.1,5,5,0,0,1,2-2.22,6.78,6.78,0,0,1,3.47-.82,6.64,6.64,0,0,1,3.48.84,5.18,5.18,0,0,1,2.06,2.22,6.92,6.92,0,0,1,.67,3.08,7.05,7.05,0,0,1-.67,3.11,5.23,5.23,0,0,1-2.06,2.24,7.73,7.73,0,0,1-7,0Zm1-2.35a3.17,3.17,0,0,0,2.52.9,3.21,3.21,0,0,0,2.53-.9,4.56,4.56,0,0,0,.78-3,4.58,4.58,0,0,0-.78-3,3.21,3.21,0,0,0-2.53-.9,3.17,3.17,0,0,0-2.52.9,4.52,4.52,0,0,0-.79,3A4.5,4.5,0,0,0,76.66,12.6Z"/><path class="cls-1" d="M97.61,4.67a5.5,5.5,0,0,1,1,3.58V15.4H95.74V8.59a3,3,0,0,0-.61-2.14,2.37,2.37,0,0,0-1.77-.64A2.77,2.77,0,0,0,91,6.89a5.85,5.85,0,0,0-.8,3.44V15.4H87.31V3.82h2.87V6.28a4.25,4.25,0,0,1,4.17-2.83A4,4,0,0,1,97.61,4.67Z"/><path class="cls-1" d="M12.09,29.62a3.58,3.58,0,0,1,.9,2.61,3.87,3.87,0,0,1-1.26,3.06A5.36,5.36,0,0,1,8.08,36.4H0V21H8.25a4.85,4.85,0,0,1,3.4,1,3.59,3.59,0,0,1,1.11,2.74,3.47,3.47,0,0,1-.87,2.5,4,4,0,0,1-2.21,1.15A4.25,4.25,0,0,1,12.09,29.62ZM3,23.29v4.15H7.23a2.73,2.73,0,0,0,1.87-.53,2,2,0,0,0,.58-1.58,2.07,2.07,0,0,0-.51-1.54,2.46,2.46,0,0,0-1.74-.5ZM9.32,33.48a2.32,2.32,0,0,0,.57-1.64c0-1.56-.89-2.34-2.66-2.34H3v4.61H7.55A2.27,2.27,0,0,0,9.32,33.48Z"/><path class="cls-1" d="M18.27,20.19V36.4H15.4V20.19Z"/><path class="cls-1" d="M32.42,24.82V36.4H29.55V34a4.15,4.15,0,0,1-4.1,2.73c-2.88,0-4.33-1.6-4.33-4.79V24.82H24v6.79a3,3,0,0,0,.64,2.16,2.47,2.47,0,0,0,1.84.64,2.61,2.61,0,0,0,2.27-1.15,5.8,5.8,0,0,0,.81-3.37V24.82Z"/><path class="cls-1" d="M42.66,24.64v2.78H41.8a3.06,3.06,0,0,0-2.71,1.1,6,6,0,0,0-.76,3.39V36.4H35.46V24.82h2.8v2.69a3.82,3.82,0,0,1,3.84-2.87Z"/></g></g></svg>