<svg xmlns="http://www.w3.org/2000/svg" viewBox="0 0 164.18 41.84"><defs><style>.cls-1{fill:#23285a;}</style></defs><g id="Ebene_2" data-name="Ebene 2"><g id="Brighter_AI" data-name="Brighter AI"><path class="cls-1" d="M14.17,4.61a6.25,6.25,0,0,0-2.42-2.77,7.5,7.5,0,0,0-4.06-1h-7v15.4h3v-13H7.09a4.63,4.63,0,0,1,3.67,1.29,6,6,0,0,1,1.12,4,6.14,6.14,0,0,1-1.12,4,4.57,4.57,0,0,1-3.67,1.32H6.57v2.36H7.69a7.33,7.33,0,0,0,4.06-1,6.29,6.29,0,0,0,2.42-2.79A9.34,9.34,0,0,0,15,8.48,9.2,9.2,0,0,0,14.17,4.61Z"/><path class="cls-1" d="M25.36,12.71h2.71a4.31,4.31,0,0,1-1.6,2.73,6.41,6.41,0,0,1-4.17,1.14,5.67,5.67,0,0,1-4.54-1.73,6.66,6.66,0,0,1-1.48-4.45,7.22,7.22,0,0,1,.66-3.13,5,5,0,0,1,2-2.2,6.38,6.38,0,0,1,3.34-.81,6.2,6.2,0,0,1,3.26.8,4.89,4.89,0,0,1,1.93,2.15,7.23,7.23,0,0,1,.63,3.07,6.35,6.35,0,0,1-.07.91h-9a3.72,3.72,0,0,0,1,2.59,3.38,3.38,0,0,0,2.34.76C24,14.54,25,13.93,25.36,12.71ZM20.11,7a3.57,3.57,0,0,0-1,2.33h6.25q-.16-3-3-3A3.33,3.33,0,0,0,20.11,7Z"/><path class="cls-1" d="M38.79,12.71H41.5a4.26,4.26,0,0,1-1.6,2.73,6.39,6.39,0,0,1-4.16,1.14,5.65,5.65,0,0,1-4.54-1.73,6.61,6.61,0,0,1-1.49-4.45,7.22,7.22,0,0,1,.66-3.13,5.1,5.1,0,0,1,2-2.2,6.42,6.42,0,0,1,3.35-.81,6.16,6.16,0,0,1,3.25.8,4.83,4.83,0,0,1,1.93,2.15,7.23,7.23,0,0,1,.63,3.07,5.17,5.17,0,0,1-.07.91h-9a3.77,3.77,0,0,0,1,2.59,3.38,3.38,0,0,0,2.34.76C37.42,14.54,38.41,13.93,38.79,12.71ZM33.55,7a3.52,3.52,0,0,0-1,2.33h6.25q-.16-3-3-3A3.29,3.29,0,0,0,33.55,7Z"/><path class="cls-1" d="M54.73,6a7,7,0,0,1,1.34,4.43,7,7,0,0,1-1.34,4.44,4.77,4.77,0,0,1-4,1.72A5.22,5.22,0,0,1,48.17,16a4.18,4.18,0,0,1-1.67-1.64v6.48H43.63V4.63H46.5V6.46a4.48,4.48,0,0,1,4.22-2.2A4.78,4.78,0,0,1,54.73,6Zm-2.28,7.39a4.73,4.73,0,0,0,.75-3,4.7,4.7,0,0,0-.75-2.95,3,3,0,0,0-2.52-.94,3.28,3.28,0,0,0-2.58,1,4.34,4.34,0,0,0-.85,2.94,4.34,4.34,0,0,0,.85,2.94,3.25,3.25,0,0,0,2.58,1A3.07,3.07,0,0,0,52.45,13.38Z"/><path class="cls-1" d="M78.46.81v15.4h-5l-5.38-11a18.34,18.34,0,0,1-1-2.43V16.21h-2.9V.81h5L74.62,11.9c.34.73.66,1.5.95,2.32V.81Z"/><path class="cls-1" d="M81.82,15.6a3.13,3.13,0,0,1-1-2.47,3.26,3.26,0,0,1,.84-2.34,4.92,4.92,0,0,1,2.84-1.2l2.81-.49a2.75,2.75,0,0,0,1.18-.41,1,1,0,0,0,.34-.84,1.36,1.36,0,0,0-.5-1.13,3,3,0,0,0-1.79-.4c-1.67,0-2.55.67-2.64,2H81a3.66,3.66,0,0,1,1.46-3,6.27,6.27,0,0,1,3.93-1.1,5.86,5.86,0,0,1,3.73,1A3.32,3.32,0,0,1,91.43,8v5.38c0,.83,0,1.77.14,2.82H89a21.27,21.27,0,0,1-.14-2.54,4.16,4.16,0,0,1-1.49,2,4.44,4.44,0,0,1-2.77.8A4.11,4.11,0,0,1,81.82,15.6Zm6.09-2.19a4.12,4.12,0,0,0,.88-2.76V10a3.13,3.13,0,0,1-.84.46,10.08,10.08,0,0,1-1.15.33l-1.27.3a3.37,3.37,0,0,0-1.46.66,1.45,1.45,0,0,0-.44,1.12,1.41,1.41,0,0,0,.5,1.15,2,2,0,0,0,1.33.4A3,3,0,0,0,87.91,13.41Z"/><path class="cls-1" d="M96.56,15.79a2.36,2.36,0,0,1-1.19-1.22A5.6,5.6,0,0,1,95,12.41V6.81H92.87V5.4l2.38-.91L96.44,2H97.9V4.63h3.52V6.81H97.9v7.11h3.24v2.29H98.89A5.33,5.33,0,0,1,96.56,15.79Z"/><path class="cls-1" d="M114.64,4.63V16.21h-2.87V13.85a4.16,4.16,0,0,1-4.1,2.73q-4.33,0-4.33-4.79V4.63h2.87v6.79a3,3,0,0,0,.64,2.16,2.45,2.45,0,0,0,1.84.64A2.61,2.61,0,0,0,111,13.07a5.8,5.8,0,0,0,.81-3.37V4.63Z"/><path class="cls-1" d="M124.62,4.45V7.23h-.86a3.06,3.06,0,0,0-2.71,1.1,6,6,0,0,0-.76,3.39v4.49h-2.87V4.63h2.8V7.32a3.82,3.82,0,0,1,3.85-2.87Z"/><path class="cls-1" d="M126.54,15.6a3.13,3.13,0,0,1-1-2.47,3.3,3.3,0,0,1,.83-2.34,5,5,0,0,1,2.85-1.2L132,9.1a2.7,2.7,0,0,0,1.18-.41,1,1,0,0,0,.34-.84A1.34,1.34,0,0,0,133,6.72a2.92,2.92,0,0,0-1.78-.4c-1.67,0-2.55.67-2.64,2h-2.82a3.68,3.68,0,0,1,1.45-3,6.32,6.32,0,0,1,3.94-1.1,5.86,5.86,0,0,1,3.73,1A3.32,3.32,0,0,1,136.15,8v5.38c0,.83,0,1.77.14,2.82h-2.54a21.27,21.27,0,0,1-.14-2.54,4.16,4.16,0,0,1-1.49,2,4.44,4.44,0,0,1-2.77.8A4.11,4.11,0,0,1,126.54,15.6Zm6.09-2.19a4.12,4.12,0,0,0,.88-2.76V10a3.13,3.13,0,0,1-.84.46,10.08,10.08,0,0,1-1.15.33l-1.27.3a3.37,3.37,0,0,0-1.46.66,1.45,1.45,0,0,0-.44,1.12,1.41,1.41,0,0,0,.5,1.15,2,2,0,0,0,1.33.4A3,3,0,0,0,132.63,13.41Z"/><path class="cls-1" d="M141.69,0V16.21h-2.87V0Z"/><path class="cls-1" d="M11.39,33.81H4.19L3,37.21H0l5.56-15.4h4.49l5.56,15.4h-3Zm-.85-2.32L7.78,23.85,5,31.49Z"/><path class="cls-1" d="M27.69,26.48a5.5,5.5,0,0,1,1,3.58v7.15H25.82V30.4a3,3,0,0,0-.61-2.14,2.37,2.37,0,0,0-1.77-.64,2.79,2.79,0,0,0-2.38,1.08,5.87,5.87,0,0,0-.8,3.44v5.07H17.39V25.63h2.87v2.46a4.25,4.25,0,0,1,4.17-2.83A4,4,0,0,1,27.69,26.48Z"/><path class="cls-1" d="M33.21,36.76a5,5,0,0,1-2.05-2.22,7.3,7.3,0,0,1-.66-3.14,7.12,7.12,0,0,1,.66-3.1,5,5,0,0,1,2.05-2.22,6.8,6.8,0,0,1,3.47-.82,6.74,6.74,0,0,1,3.48.83,5.26,5.26,0,0,1,2.06,2.23,7,7,0,0,1,.67,3.08,7.05,7.05,0,0,1-.67,3.11,5.23,5.23,0,0,1-2.06,2.24,6.74,6.74,0,0,1-3.48.83A6.7,6.7,0,0,1,33.21,36.76Zm.95-2.35a3.2,3.2,0,0,0,2.52.9,3.21,3.21,0,0,0,2.53-.9,4.56,4.56,0,0,0,.79-3,4.58,4.58,0,0,0-.79-3,3.21,3.21,0,0,0-2.53-.9,3.2,3.2,0,0,0-2.52.9,4.58,4.58,0,0,0-.79,3A4.56,4.56,0,0,0,34.16,34.41Z"/><path class="cls-1" d="M55.18,26.48a5.5,5.5,0,0,1,1,3.58v7.15H53.31V30.4a3,3,0,0,0-.61-2.14,2.37,2.37,0,0,0-1.77-.64,2.79,2.79,0,0,0-2.38,1.08,5.87,5.87,0,0,0-.8,3.44v5.07H44.88V25.63h2.87v2.46a4.25,4.25,0,0,1,4.17-2.83A4,4,0,0,1,55.18,26.48Z"/><path class="cls-1" d="M69.46,25.63,65,37.91a11.51,11.51,0,0,1-1,2.29,3.44,3.44,0,0,1-1.39,1.23,5.56,5.56,0,0,1-2.38.41H57.74V39.55h4l.92-2.45H61.21L57,25.63H60l2.85,7.76L63.36,35l.51-1.65,2.83-7.76Z"/><path class="cls-1" d="M89.11,26.5a5.47,5.47,0,0,1,1,3.56v7.15H87.27V30.38a3.17,3.17,0,0,0-.58-2.1A2.13,2.13,0,0,0,85,27.62a2.53,2.53,0,0,0-2.23,1.08A6.25,6.25,0,0,0,82,32.14v5.07H79.21V30.38a3.17,3.17,0,0,0-.58-2.1,2.13,2.13,0,0,0-1.69-.66,2.48,2.48,0,0,0-2.2,1.08A6.17,6.17,0,0,0,74,32.14v5.07H71.12V25.63H74V28a4.1,4.1,0,0,1,4-2.69,3.55,3.55,0,0,1,3.8,2.85A4.17,4.17,0,0,1,86,25.26,3.82,3.82,0,0,1,89.11,26.5Z"/><path class="cls-1" d="M96,21.81V24H92.61v-2.2Zm-.23,3.82V37.21H92.85V25.63Z"/><path class="cls-1" d="M108.78,35.08v2.13H98.2V35.08l7.13-7.32h-7V25.63h10.42v2.13l-7.09,7.32Z"/><path class="cls-1" d="M111.58,36.6a3.13,3.13,0,0,1-1-2.47,3.3,3.3,0,0,1,.83-2.34,5,5,0,0,1,2.85-1.2L117,30.1a2.61,2.61,0,0,0,1.18-.42,1,1,0,0,0,.34-.83,1.34,1.34,0,0,0-.51-1.13,2.94,2.94,0,0,0-1.78-.4c-1.67,0-2.55.67-2.64,2h-2.83a3.71,3.71,0,0,1,1.46-3,6.32,6.32,0,0,1,3.94-1.1,5.86,5.86,0,0,1,3.73,1A3.32,3.32,0,0,1,121.19,29v5.38c0,.83,0,1.77.14,2.82h-2.54a21.32,21.32,0,0,1-.14-2.55,4.14,4.14,0,0,1-1.49,2.05,4.45,4.45,0,0,1-2.78.8A4.1,4.1,0,0,1,111.58,36.6Zm6.09-2.19a4.12,4.12,0,0,0,.88-2.76V31a3.13,3.13,0,0,1-.84.46,10.08,10.08,0,0,1-1.15.33l-1.27.3a3.37,3.37,0,0,0-1.46.66,1.45,1.45,0,0,0-.44,1.12,1.39,1.39,0,0,0,.5,1.15,2,2,0,0,0,1.33.4A3,3,0,0,0,117.67,34.41Z"/><path class="cls-1" d="M126.32,36.79a2.36,2.36,0,0,1-1.19-1.22,5.6,5.6,0,0,1-.35-2.16v-5.6h-2.15V26.4l2.38-.91L126.2,23h1.46v2.68h3.51v2.18h-3.51v7.11h3.24v2.29h-2.25A5.33,5.33,0,0,1,126.32,36.79Z"/><path class="cls-1" d="M136.41,21.81V24h-3.34v-2.2Zm-.23,3.82V37.21h-2.87V25.63Z"/><path class="cls-1" d="M141.18,36.76a5,5,0,0,1-2.05-2.22,7.3,7.3,0,0,1-.66-3.14,7.12,7.12,0,0,1,.66-3.1,5,5,0,0,1,2.05-2.22,7.73,7.73,0,0,1,6.95,0,5.26,5.26,0,0,1,2.06,2.23,7,7,0,0,1,.67,3.08,7.05,7.05,0,0,1-.67,3.11,5.23,5.23,0,0,1-2.06,2.24,7.73,7.73,0,0,1-6.95,0Zm.95-2.35a4,4,0,0,0,5.05,0,4.56,4.56,0,0,0,.79-3,4.58,4.58,0,0,0-.79-3,4,4,0,0,0-5.05,0,4.52,4.52,0,0,0-.79,3A4.5,4.5,0,0,0,142.13,34.41Z"/><path class="cls-1" d="M163.17,26.48a5.5,5.5,0,0,1,1,3.58v7.15h-2.87V30.4a3,3,0,0,0-.62-2.14,2.37,2.37,0,0,0-1.77-.64,2.75,2.75,0,0,0-2.37,1.08,5.8,5.8,0,0,0-.8,3.44v5.07h-2.87V25.63h2.87v2.46a4.25,4.25,0,0,1,4.17-2.83A4,4,0,0,1,163.17,26.48Z"/></g></g></svg>