<svg version="1.1" id="Ebene_1" xmlns="http://www.w3.org/2000/svg" x="0" y="0" viewBox="0 0 149.4 16.8" xml:space="preserve"><style>.st0{fill:#23285a}</style><g id="Ebene_2_1_"><g id="Brighter_AI"><path class="st0" d="M11.4 2.4C10.5 1.4 9.1.9 7.8 1H0v15.4h3V3.3h3.9c1.7 0 2.6.8 2.6 2.5 0 .7-.2 1.3-.6 1.8-.5.5-1.3.7-2 .7h-1v2.3h1.8c1.4.1 2.7-.4 3.6-1.4.8-1 1.3-2.2 1.2-3.5.1-1.2-.3-2.4-1.1-3.3zM21.4 4.6v2.8h-.9c-1-.1-2.1.3-2.7 1.1-.6 1-.8 2.2-.8 3.4v4.5h-2.9V4.8H17v2.7c.4-1.7 2-2.9 3.8-2.9h.6zM31.5 12.9h2.7c-.2 1.1-.8 2.1-1.6 2.7-1.2.8-2.7 1.3-4.2 1.1-1.7.1-3.4-.5-4.5-1.8-1-1.2-1.5-2.8-1.5-4.4 0-1.1.2-2.1.7-3.1.4-.9 1.1-1.7 2-2.2 1-.6 2.2-.9 3.4-.8 1.1 0 2.3.2 3.2.8.9.5 1.5 1.3 1.9 2.1.4 1 .6 2 .6 3.1 0 .3 0 .6-.1.9h-9c0 1 .3 1.9 1 2.6.7.5 1.5.8 2.3.8 1.7 0 2.7-.6 3.1-1.8zm-5.3-5.7c-.6.6-1 1.5-1 2.3h6.2c-.1-2-1.1-3-3-3-.7-.1-1.5.2-2.2.7zM36.5 7.5c.5-.9 1.2-1.7 2.1-2.2 1-.6 2.2-.9 3.4-.8 1.5-.1 3 .4 4.2 1.4 1 .9 1.6 2.2 1.6 3.5H45c-.1-.7-.4-1.4-.8-1.9-.6-.5-1.4-.8-2.2-.7-.9-.1-1.8.3-2.5.9-.7.9-1 1.9-.9 3-.1 1.1.2 2.1.8 3 .7.6 1.6 1 2.5.9.8.1 1.6-.2 2.2-.7.5-.5.9-1.2.9-2h2.8c0 .9-.3 1.7-.7 2.5-.5.8-1.2 1.4-2 1.8-1 .5-2.1.7-3.2.7-1.2.1-2.4-.2-3.4-.7-.9-.5-1.6-1.3-2.1-2.2-.5-1-.7-2-.7-3.1.1-1.3.3-2.4.8-3.4zM53.1 1v2.2h-3.3V1h3.3zm-.2 3.8v11.6H50V4.8h2.9zM58.5 14.2c.6.5 1.4.7 2.2.6.6.1 1.2-.1 1.8-.4.4-.3.6-.7.5-1.2 0-.4-.1-.7-.4-1-.4-.3-.8-.5-1.3-.5l-2.7-.4c-.9-.1-1.7-.4-2.4-1.1-.6-.6-.9-1.4-.8-2.2-.1-1 .4-2 1.3-2.6 1.1-.7 2.4-1 3.7-1 1.3-.1 2.6.3 3.7 1 .9.6 1.5 1.6 1.5 2.8h-2.8c0-.5-.3-1-.7-1.3-.5-.4-1.2-.5-1.8-.5-.6 0-1.2.1-1.7.4-.4.2-.6.6-.6 1 0 .7.5 1.2 1.5 1.3l2.5.4c1.1.1 2.1.5 2.9 1.2.6.6.9 1.5.8 2.4 0 2.5-1.7 3.7-5.2 3.7-1.5.1-3-.3-4.2-1.2-.9-.7-1.4-1.8-1.4-3h2.6c.2.6.5 1.2 1 1.6zM71.1 1v2.2h-3.3V1h3.3zm-.2 3.8v11.6H68V4.8h2.9zM75.7 16c-.9-.5-1.6-1.3-2-2.2-.5-1-.7-2.1-.7-3.2s.2-2.1.7-3.1c.4-.9 1.1-1.7 2-2.2 1.1-.6 2.3-.9 3.5-.8 1.2 0 2.4.2 3.5.8.9.5 1.6 1.3 2.1 2.2.5 1 .7 2 .7 3.1s-.2 2.1-.7 3.1c-.4.9-1.2 1.7-2.1 2.2-2.3 1.2-4.9 1.2-7 .1zm1-2.3c.7.7 1.6 1 2.5.9.9.1 1.9-.2 2.5-.9.6-.9.9-1.9.8-3 .1-1.1-.2-2.1-.8-3-.7-.7-1.6-1-2.5-.9-.9-.1-1.9.2-2.5.9-.6.9-.9 1.9-.8 3-.1 1 .2 2 .8 3zM97.6 5.7c.7 1 1.1 2.3 1 3.6v7.1h-2.9V9.6c.1-.8-.1-1.5-.6-2.1-.4-.5-1.1-.7-1.7-.7-.9-.1-1.8.4-2.4 1.1-.6 1-.9 2.2-.8 3.4v5.1h-2.9V4.8h2.9v2.5c.6-1.8 2.3-2.9 4.2-2.8 1.2-.2 2.4.3 3.2 1.2z"/></g></g><path class="st0" d="M118.8 9.7c.6.7 1 1.7.9 2.6.1 1.2-.4 2.3-1.3 3.1-1 .8-2.3 1.2-3.7 1.1h-8.1V1.1h8.2c1.2-.1 2.4.2 3.4 1 .7.7 1.2 1.7 1.1 2.7.1.9-.3 1.8-.9 2.5-.6.6-1.4 1-2.2 1.2 1.1.1 2 .5 2.6 1.2zm-9.1-6.4v4.1h4.2c.7.1 1.3-.1 1.9-.5.4-.4.6-1 .6-1.6 0-.6-.1-1.1-.5-1.5-.5-.4-1.1-.6-1.7-.5h-4.5zm6.4 10.2c.4-.5.6-1 .6-1.6 0-1.6-.9-2.3-2.7-2.3h-4.2v4.6h4.5c.6 0 1.3-.2 1.8-.7zM125 .2v16.2h-2.9V.2h2.9zM139.2 4.9v11.6h-2.9v-2.4c-.6 1.7-2.3 2.8-4.1 2.7-2.9 0-4.3-1.6-4.3-4.8V4.9h2.9v6.8c-.1.8.2 1.6.6 2.2.5.5 1.2.7 1.8.6.9 0 1.8-.4 2.3-1.2.6-1 .9-2.2.8-3.4v-5h2.9zM149.4 4.7v2.8h-.9c-1-.1-2.1.3-2.7 1.1-.6 1-.8 2.2-.8 3.4v4.5h-2.9V4.9h2.8v2.7c.4-1.7 2-2.9 3.8-2.9h.7z"/></svg>
