<svg xmlns="http://www.w3.org/2000/svg" viewBox="0 0 169.05 232.28"><path d="M0 168.39c0-32.95 21.3-49.92 49.58-57.9-27.95-8.33-43.59-26.96-43.59-52.25C5.99 26.96 31.61 0 84.53 0c52.91 0 78.54 26.96 78.54 58.24 0 24.96-16.31 43.59-43.59 51.91 28.29 8.32 49.58 25.29 49.58 58.24 0 33.94-25.29 63.89-84.53 63.89S0 202.66 0 168.39zm147.42-.67c0-30.28-20.3-48.25-62.89-48.25s-62.9 17.97-62.9 48.25c0 26.29 18.3 47.59 62.9 47.59 44.59 0 62.89-21.3 62.89-47.59zm-4.99-108.15c0-24.63-18.3-42.6-57.9-42.6-39.6 0-57.9 17.97-57.9 42.6 0 21.63 15.97 43.93 57.9 43.93 41.93-.01 57.9-22.3 57.9-43.93z" fill="#82f0d7"/></svg>
