<svg xmlns="http://www.w3.org/2000/svg" viewBox="0 0 193.46 232.68"><path d="M180.82 111.35c0 74.46-30.58 121.32-92.07 121.32-49.19 0-71.46-25.93-75.79-62.82H33.9c3.99 28.92 22.94 45.54 55.51 45.54 45.87 0 72.79-31.58 72.79-114.01v-1.99c-11.3 25.26-36.23 44.21-73.46 44.21-42.21 0-76.12-23.93-76.12-70.47C12.63 33.24 39.89 0 94.07 0c53.52 0 86.75 30.91 86.75 111.35zm-24.59-37.89c0-33.9-23.6-56.18-61.49-56.18-41.88 0-60.5 22.94-60.5 55.18 0 31.91 18.28 55.84 58.5 55.84 34.9.01 63.49-21.27 63.49-54.84z" fill="#82f0d7"/></svg>
