<svg xmlns="http://www.w3.org/2000/svg" viewBox="0 0 168.19 232.68"><path d="M168.36 159.55c0 39.89-27.26 73.13-81.77 73.13-53.52 0-86.76-30.91-86.76-111.35C-.17 46.87 30.75 0 91.91 0c49.19 0 71.46 25.93 75.79 62.82h-20.94c-3.66-28.92-22.94-45.54-55.51-45.54-45.87 0-72.79 31.58-72.79 114.01v2.99c10.97-25.93 35.9-45.21 73.79-45.21 41.87.01 76.11 23.95 76.11 70.48zm-21.94.67c0-31.91-17.95-55.84-58.17-55.84-34.9 0-63.82 21.27-63.82 54.85 0 33.91 23.6 56.18 61.83 56.18 41.88-.02 60.16-22.95 60.16-55.19z" fill="#82f0d7"/></svg>
