<svg version="1.1" id="Layer_1" xmlns="http://www.w3.org/2000/svg" x="0" y="0" viewBox="0 0 164.77 228.1" xml:space="preserve"><style></style><path d="M164.77 210.4v17.7H3.67v-17.7l96.84-70.31c34.66-28.32 41.45-45.75 41.45-66.27 0-13.91-4.55-28.28-13.09-37.8-9.64-10.75-25.49-18.74-43.79-18.74-24.82 0-42.65 13.07-53.04 29.82-6.13 9.88-8.71 20.53-10.06 29.97H0c1.83-12.69 5.99-27.94 14.98-41.79C29.96 12.2 54.2 0 85.08 0c53.69 0 78.14 38.27 78.14 73.82 0 25.55-10.04 50.4-52.78 81.22L35.37 210.4h129.4z" fill="#82f0d7"/></svg>
