<svg xmlns="http://www.w3.org/2000/svg" width="92.281" height="68.901" viewBox="0 0 92.281 68.901"><path d="M549.112,418.879V418.5h.242c.132,0,.312.01.312.172s-.093.205-.248.205h-.306m0,.265h.162l.375.66h.412l-.416-.687a.373.373,0,0,0,.392-.407c0-.36-.248-.475-.667-.475h-.607V419.8h.349v-.66m1.765-.123a1.517,1.517,0,1,0-1.514,1.457,1.436,1.436,0,0,0,1.514-1.457m-.437,0a1.076,1.076,0,0,1-1.077,1.122v-.005a1.119,1.119,0,1,1,1.077-1.117Z" transform="translate(-458.595 -351.578)" fill="#23285a"/><path d="M270.379,367.744l0,16.534h4.669V367.744Zm-36.735-.023v16.557h4.711V371.706h3.65a3.434,3.434,0,0,1,2.653.922c.739.787,1.04,2.056,1.04,4.378v7.27h4.565v-9.148c0-6.529-4.162-7.409-8.233-7.409Zm44.253.023v16.534h7.574c4.036,0,5.352-.671,6.777-2.176,1.007-1.056,1.658-3.375,1.658-5.909a9.815,9.815,0,0,0-1.511-5.688c-1.73-2.309-4.222-2.76-7.943-2.76Zm4.632,3.6h2.008c2.913,0,4.8,1.308,4.8,4.7s-1.884,4.7-4.8,4.7h-2.008Zm-18.883-3.6-3.9,13.1-3.734-13.1h-5.041l5.333,16.534h6.73l5.375-16.534Zm32.433,16.534h4.671V367.745h-4.672Zm13.09-16.528-6.52,16.522h4.6l1.032-2.92H316l.977,2.92h5l-6.57-16.524Zm3.031,3.015,2.829,7.74h-5.747Z" transform="translate(-233.644 -315.892)" fill="#23285a"/><path d="M278.737,198.378v-3.972c.385-.028.775-.048,1.172-.061C290.773,194,297.9,203.68,297.9,203.68s-7.7,10.692-15.952,10.692a10.009,10.009,0,0,1-3.212-.514V201.813c4.23.511,5.08,2.379,7.623,6.618l5.655-4.768a14.974,14.974,0,0,0-11.087-5.414,20.48,20.48,0,0,0-2.191.129m0-13.122v5.934c.39-.031.78-.056,1.172-.07,15.108-.509,24.951,12.391,24.951,12.391s-11.306,13.748-23.084,13.748a17.392,17.392,0,0,1-3.039-.268v3.668a20.026,20.026,0,0,0,2.531.164c10.961,0,18.888-5.6,26.563-12.222,1.272,1.019,6.482,3.5,7.553,4.584-7.3,6.109-24.306,11.033-33.948,11.033-.929,0-1.823-.056-2.7-.14v5.154H320.4V185.256Zm0,28.6v3.131c-10.137-1.807-12.951-12.345-12.951-12.345a21.913,21.913,0,0,1,12.951-6.267v3.436l-.016,0c-4.242-.509-7.557,3.454-7.557,3.454s1.857,6.672,7.572,8.593m-18.005-9.671a25.106,25.106,0,0,1,18.005-9.782V191.19c-13.288,1.066-24.8,12.32-24.8,12.32s6.517,18.842,24.8,20.566v-3.419C265.325,218.97,260.732,204.188,260.732,204.188Z" transform="translate(-248.176 -185.256)" fill="#23285a"/></svg>