<svg height="56.7" viewBox="0 0 56.7 56.7" width="56.7" xmlns="http://www.w3.org/2000/svg"><path d="M38.8794 24.7448c2.0216.3824 3.4481 1.2355 4.2793 2.5609.8307 1.3258 1.2467 3.4149 1.2467 6.2674 0 5.6608-1.7016 10.2939-5.1049 13.8993-3.4032 3.605-7.7555 5.4076-13.0569 5.4076-2.0891 0-4.1164-.3763-6.082-1.1288-1.9661-.7526-3.656-1.8027-5.0711-3.1505-1.6174-1.4821-2.8305-3.049-3.6391-4.7-.8087-1.6511-1.213-3.341-1.213-5.0712 0-1.9318.4156-3.4252 1.2466-4.4814.8307-1.0558 2.1448-1.7742 3.9424-2.1565-.3369-.7863-.5845-1.449-.7413-1.9881-.1573-.5391-.2359-.9547-.2359-1.2466 0-1.0109.5335-2.0438 1.6005-3.1 1.0666-1.0558 2.0723-1.5837 3.0157-1.5837.4044 0 .8307.073 1.2804.2191.4493.1465.9655.3875 1.55.7244-1.7302-4.8971-2.9877-8.6765-3.7739-11.3385-.7867-2.6619-1.1793-4.4983-1.1793-5.5091 0-1.3927.3589-2.4986 1.0782-3.319.719-.8201 1.6962-1.2301 2.9316-1.2301 2.1112 0 4.7847 4.7174 8.0195 14.152.5612 1.6174.9884 2.8641 1.2805 3.7402.2471-.6959.5948-1.6848 1.0445-2.9652 3.2348-9.3448 6.0198-14.0173 8.3565-14.0173 1.1456 0 2.0606.3875 2.7461 1.1625.6851.775 1.0277 1.8144 1.0277 3.1169 0 .9888-.3763 2.7966-1.1289 5.4249-.7528 2.6283-1.8924 6.0652-3.4199 10.3108zM14.7535 38.4925c.3145.3823.7526.9435 1.3141 1.6848 1.4826 2.0442 2.8524 3.0663 4.1109 3.0663.4263 0 .8086-.1348 1.1456-.4044.3369-.2695.5054-.5503.5054-.8424 0-.3369-.2247-.8981-.6739-1.6848-.4498-.7862-1.067-1.6731-1.8533-2.6619-.8985-1.1456-1.6459-1.9824-2.2407-2.5104-.5953-.5274-1.0731-.7918-1.432-.7918-.7867 0-1.5112.4211-2.1734 1.2635-.6627.8424-.994 1.8364-.994 2.982 0 .9215.2302 1.9492.6908 3.0831.4601 1.1344 1.1288 2.2745 2.0049 3.4201 1.3253 1.7747 2.9703 3.1388 4.9364 4.0935 1.9655.9557 4.1389 1.432 6.52 1.432 4.3804 0 8.0476-1.6341 11.0015-4.9022 2.9535-3.2685 4.431-7.3624 4.431-12.282 0-1.5046-.1128-2.7007-.337-3.5885-.2247-.8873-.5953-1.5331-1.112-1.9375-.9214-.7633-2.7124-1.4489-5.3744-2.0554-2.6619-.6065-5.4418-.9098-8.3396-.9098-.8086 0-1.3815.1348-1.7184.4043-.337.2696-.5055.7301-.5055 1.3815 0 1.528.8537 2.6339 2.5609 3.319 1.7068.6857 4.4698 1.0277 8.289 1.0277h1.3816c.3145 0 .5672.118.7581.3538.1904.2359.3201.5897.3875 1.0615-.3824.3594-1.1682.7698-2.3587 1.2299-1.191.4604-2.1008.9153-2.7293 1.3646-1.3479.9888-2.4317 2.1622-3.2516 3.5211-.8204 1.3596-1.2299 2.6451-1.2299 3.8581 0 .7414.1736 1.6342.5223 2.6788.3482 1.0446.5223 1.6904.5223 1.9375v.2359l-.0674.3032c-.9888-.0674-1.769-.6453-2.3418-1.7353-.5729-1.0895-.8592-2.544-.8592-4.3636v-.3032c-.1802.1573-.3539.2696-.5223.337-.1685.0674-.3539.1011-.556.1011-.2022 0-.3932-.0169-.5729-.0506-.1802-.0336-.3823-.0842-.6065-.1516a5.955 5.955 0 01.1516.7245c.0337.2359.0505.4211.0505.556 0 .8312-.3257 1.5448-.9771 2.1396-.6519.5953-1.4269.8929-2.325.8929-1.4151 0-2.8528-.6908-4.313-2.0723-1.4606-1.3815-2.1901-2.7344-2.1901-4.0603 0-.2471.0281-.4661.0842-.6571.0557-.1901.1517-.3534.2864-.4882zm10.1086.8087c.3818 0 .7296-.1736 1.0445-.5223.3145-.3482.4717-.7245.4717-1.1288 0-.4264-.3089-1.4204-.9266-2.9821-.6182-1.5612-1.3872-3.0943-2.3081-4.5994-.6739-1.1232-1.3366-1.9711-1.988-2.544-.6519-.5728-1.2692-.8592-1.8533-.8592-.4717 0-.994.2982-1.5669.893-.5728.5953-.8592 1.1512-.8592 1.6679 0 .5391.2808 1.3479.8424 2.4261.5612 1.0783 1.3141 2.2239 2.2576 3.4369.9884 1.3258 1.9206 2.3586 2.7967 3.1.8761.7413 1.5721 1.1119 2.0892 1.1119zm3.3022-16.2748l-3.6391-10.513c-.9435-2.6732-1.6735-4.4192-2.1901-5.2396-.5172-.8199-1.0783-1.2299-1.6849-1.2299-.4716 0-.8541.1802-1.1456.5391-.292.3594-.438.8424-.438 1.4489 0 1.0334.3927 2.8305 1.1794 5.3913.7862 2.5609 1.9655 5.9192 3.538 10.0749.1348-.2471.3252-.4211.5728-.5223.2471-.101.5841-.1516 1.0109-.1516.1348 0 .4044.0117.8087.0337.4041.0224 1.0664.0791 1.9879.1685zm3.8075 10.2097c-.9659-.0449-1.8817-.146-2.7461-.3032-.8648-.1568-1.6904-.3818-2.4766-.6739a26.291 26.291 0 01.9604 2.1565c.2807.7193.5106 1.4268.6908 2.1228.5391-.6739 1.1063-1.2856 1.7016-1.8364.5947-.5504 1.2181-1.0391 1.8699-1.4658zm4.4815-9.0641c1.5046-4.0884 2.6788-7.4635 3.5212-10.1255.8424-2.6619 1.2635-4.2961 1.2635-4.9026 0-.6515-.1404-1.1568-.4211-1.5163-.2813-.359-.6688-.5391-1.1625-.5391-.629 0-1.2693.5223-1.9206 1.5668-.6519 1.0446-1.3703 2.7242-2.1565 5.0375l-3.3696 9.7379 4.2456.7413z" fill="#FFFFFF" fill-rule="evenodd"/></svg>
