<svg height="512" viewBox="0 0 512 512" width="512" xmlns="http://www.w3.org/2000/svg"><path clip-rule="evenodd" d="M332.051 176.916c24.504 0 45.362 8.772 62.607 25.707 14.518 14.82 21.474 36.289 21.474 64.714v163.317h-61.398V322.381c0-29.327-1.511-48.99-3.928-58.676-2.717-9.67-7.258-17.231-13.912-22.069-6.653-5.14-14.818-7.562-24.493-7.562-12.403 0-23.295 3.935-32.366 12.399-9.069 8.47-15.121 19.966-18.744 34.786-1.822 7.849-2.729 24.485-2.729 50.202v99.192H196.57V182.965h61.992v25.706c14.215-11.794 26.92-19.961 38.416-24.798 11.486-4.535 22.983-6.957 35.073-6.957zM25.701 512h460.89C500.503 512 512 500.52 512 486.597V25.706C512 11.491 500.503 0 486.591 0H25.701C11.486 0 0 11.491 0 25.706v460.891C0 500.519 11.486 512 25.701 512zM135.482 81.35c10.883 0 20.265 3.93 28.128 11.794 7.862 7.864 11.486 17.539 11.486 28.732 0 10.886-3.624 20.264-11.486 28.123-7.561 7.864-16.943 11.497-27.826 11.497s-20.265-3.935-28.127-11.799c-7.862-7.859-11.789-17.54-11.789-29.031 0-10.886 3.926-19.96 11.487-27.825 7.862-7.561 17.235-11.491 28.127-11.491zm-31.147 101.615h61.993v247.689h-61.993V182.965z" fill="#FFFFFF" fill-rule="evenodd"/></svg>
