<?xml version="1.0" encoding="utf-8"?>
<!-- Generator: Adobe Illustrator 23.0.0, SVG Export Plug-In . SVG Version: 6.00 Build 0)  -->
<svg version="1.1" xmlns="http://www.w3.org/2000/svg" xmlns:xlink="http://www.w3.org/1999/xlink" x="0px" y="0px"
	 viewBox="0 0 70.5 67.6" style="enable-background:new 0 0 70.5 67.6;" xml:space="preserve">
<style type="text/css">
	.st0{display:none;}
	.st1{display:inline;}
	.st2{display:inline;fill:#FFFFFF;stroke:#000000;stroke-width:3;stroke-miterlimit:10;}
	.st3{display:inline;fill:none;stroke:#000000;stroke-width:3;stroke-miterlimit:10;}
	.st4{fill:#82F0D7;}
	.st5{fill:none;}
	.st6{display:inline;fill:#D9FBED;}
	.st7{display:inline;fill:#82F0D7;}
</style>
<g id="Brighter_AI" class="st0">
	<path class="st1" d="M46,15.6H15.6v36.5h3.1V18.6H46V15.6z M41.7,28.2c0-3.6-2.9-6.4-6.4-6.4c-3.6,0-6.4,2.9-6.4,6.4
		c0,3.6,2.9,6.4,6.4,6.4C38.8,34.6,41.7,31.7,41.7,28.2z M31.7,28.2c0-1.9,1.6-3.5,3.5-3.5c1.9,0,3.5,1.6,3.5,3.5
		c0,1.9-1.6,3.5-3.5,3.5C33.3,31.7,31.7,30.1,31.7,28.2z M45.7,44.9v-3.3c0-2.2-1.8-3.9-3.9-3.9H28.7c-2.2,0-3.9,1.8-3.9,3.9v3.3
		h2.9v-4.3h15.1v4.3L45.7,44.9z M54.9,15.6l-3.1,0V49l-27.1,0v3.1h30.2L54.9,15.6z"/>
</g>
<g id="Capa_2" class="st0">
</g>
<g id="boton-captura" class="st0">
	<circle class="st2" cx="35.2" cy="33.2" r="19.9"/>
	<polygon class="st1" points="35.2,33.8 15.7,53.4 22,57.7 	"/>
	<polygon class="st1" points="35.2,33.8 54.8,14.2 48.5,9.9 	"/>
</g>
<g id="Capa_4" class="st0">
	<g class="st1">
		<polygon points="20,36.4 20,23.1 44.5,23.1 44.5,20.1 17,20.1 17,47.5 20,47.5 20,44.5 		"/>
		<polygon points="53.5,20.1 50.5,20.1 50.5,23.1 50.5,34.9 50.5,44.5 27.6,44.5 26,47.5 53.5,47.5 		"/>
	</g>
	<path class="st1" d="M48.1,47.5H26l10.3-19.1L48.1,47.5z M31,44.5h11.7l-6.2-10.1L31,44.5z"/>
	<rect x="23.5" y="26.1" class="st1" width="6.1" height="6.1"/>
	<polyline class="st3" points="41.2,38.3 47.2,28.4 52.2,36.5 	"/>
</g>
<g id="back" class="st0">
	<g class="st1">
		<g id="back_1_">
			<polygon class="st4" points="36.6,50 20.4,33.8 36.6,17.6 39.4,20.4 26.1,33.8 39.5,47.2 			"/>
			<rect x="31.8" y="31.8" class="st4" width="18.2" height="4"/>
		</g>
	</g>
</g>
<g id="validate" class="st0">
</g>
<g id="redo" class="st0">
	<g class="st1">
		<g id="redo_1_">
			<polygon class="st4" points="40.9,37.3 37,36.7 39.3,22.6 53.4,24.9 52.8,28.8 42.6,27.2 			"/>
			<g>
				<path class="st5" d="M31.8,28.2c-3.4,1.5-5.7,4.8-5.7,8.7c0,5.3,4.3,9.6,9.6,9.6s9.6-4.3,9.6-9.6c0-2.2-0.8-4.2-2-5.9l-7.5,5.9
					L31.8,28.2z"/>
				<path class="st4" d="M43.2,31c1.3,1.6,2,3.7,2,5.9c0,5.3-4.3,9.6-9.6,9.6S26,42.2,26,36.9c0-3.9,2.4-7.3,5.7-8.7l-1.6-3.7
					c-4.8,2.1-8.1,6.9-8.1,12.4c0,7.5,6.1,13.6,13.6,13.6s13.6-6.1,13.6-13.6c0-3.1-1.1-6-2.9-8.3L43.2,31z"/>
			</g>
		</g>
	</g>
</g>
<g id="share" class="st0">
	<g class="st1">
		<g id="share_1_">
			<rect x="30.4" y="28.5" transform="matrix(0.866 -0.5001 0.5001 0.866 -10.2867 21.6524)" class="st4" width="9.7" height="3"/>
			
				<rect x="33.4" y="35.6" transform="matrix(0.5273 -0.8497 0.8497 0.5273 -17.8809 48.8016)" class="st4" width="3" height="9.7"/>
			<circle class="st4" cx="44.9" cy="24.6" r="5.3"/>
			<circle class="st4" cx="25.6" cy="35.3" r="5.3"/>
			<circle class="st4" cx="44.3" cy="46.2" r="5.3"/>
		</g>
		<g id="camara_1_">
		</g>
	</g>
</g>
<g id="shot" class="st0">
	<g class="st1">
		<g id="boton-captura_2_">
			<g>
				<path class="st4" d="M51.2,6.9l-1.3,1.3l-1.3,1.3c3.8,3.9,6.1,9.3,6.1,15.1c0,12-9.7,21.9-21.9,21.9c-3.7,0-7.3-1-10.3-2.6
					l-0.8,1.5l-0.7,1.4c3.6,1.9,7.7,3.1,12,3.1c14,0,25.4-11.4,25.4-25.4C58.3,17.7,55.6,11.5,51.2,6.9z"/>
				<path class="st4" d="M32.9,2.7c3.9,0,7.7,1.1,10.9,3l0.8-1.5l0.8-1.5c-3.7-2.1-8-3.4-12.6-3.4c-14,0-25.4,11.4-25.4,25.4
					c0,7.1,3,13.7,7.8,18.3l1.3-1.3l1.3-1.3c-4.2-3.9-6.8-9.5-6.8-15.7C11.1,12.4,20.9,2.7,32.9,2.7z"/>
			</g>
		</g>
	</g>
</g>
<g id="protect" class="st0">
	<g class="st1">
		<g id="Brighter_AI_2_">
			<path class="st4" d="M46.6,15.6H16.2v36.5h3.1V18.6h27.3V15.6z M42.3,28.2c0-3.6-2.9-6.4-6.4-6.4c-3.6,0-6.4,2.9-6.4,6.4
				c0,3.6,2.9,6.4,6.4,6.4C39.4,34.6,42.3,31.7,42.3,28.2z M32.3,28.2c0-1.9,1.6-3.5,3.5-3.5s3.5,1.6,3.5,3.5s-1.6,3.5-3.5,3.5
				S32.3,30.1,32.3,28.2z M46.3,44.9v-3.3c0-2.2-1.8-3.9-3.9-3.9H29.3c-2.2,0-3.9,1.8-3.9,3.9v3.3h2.9v-4.3h15.1v4.3H46.3z
				 M55.5,15.6h-3.1V49H25.3v3.1h30.2V15.6z"/>
		</g>
	</g>
</g>
<g id="download" class="st0">
	<g class="st1">
		<g id="download_1_">
			<polygon class="st4" points="36.6,40.3 25.2,28.9 27.3,26.8 36.6,36.1 46.1,26.6 48.2,28.7 			"/>
			<rect x="35.2" y="20.7" class="st4" width="3" height="12.3"/>
			<polygon class="st4" points="48.7,49.7 24.7,49.7 24.7,41.8 27.7,41.8 27.7,46.7 45.7,46.7 45.7,41.8 48.7,41.8 			"/>
		</g>
		<g id="Capa_9_1_">
		</g>
	</g>
</g>
<g id="flash" class="st0">
	<g class="st1">
		<g id="forma-flash_1_">
			<path class="st4" d="M33.5,54.2v-15h-8.4l15-22.9v13.9h9L33.5,54.2z M30.6,36.3h5.9v7.8l7-10.8h-6.4v-6.9L30.6,36.3z"/>
		</g>
	</g>
</g>
<g id="gallery" class="st0">
	<g class="st1">
		<g id="Capa_4_2_">
			<rect x="25.5" y="26.7" class="st4" width="6.1" height="6.1"/>
			<g>
				<polygon class="st4" points="46.5,20.7 19,20.7 19,48.1 22,48.1 22,45.1 22,37 22,23.7 46.5,23.7 				"/>
				<path class="st4" d="M52.5,20.7v3v7.7l-3.2-5.3L43,36.5L38.4,29L28,48.1h22h5.4V20.7H52.5z M33,45.1L38.4,35l6.2,10.1H33z
					 M48.2,45.1l-3.5-5.7l4.5-7.5l3.2,5.4v7.8H48.2z"/>
			</g>
		</g>
	</g>
</g>
<g id="change-camera" class="st0">
	<g class="st1">
		<g id="camra-fotos_2_">
			<polygon class="st4" points="20.1,45.9 17.1,45.9 17.1,20.7 27.1,20.7 27.1,16.8 37.2,16.8 37.2,19.8 30.1,19.8 30.1,23.7 
				20.1,23.7 			"/>
			<polygon class="st4" points="53.2,46.1 22.8,46.1 22.8,43.1 50.2,43.1 50.2,23.7 40.7,23.7 40.7,20.7 53.2,20.7 			"/>
			<path class="st4" d="M34.4,40.2c-3.7,0-6.8-3-6.8-6.8s3-6.8,6.8-6.8c3.7,0,6.8,3,6.8,6.8S38.1,40.2,34.4,40.2z M34.4,29.7
				c-2.1,0-3.8,1.7-3.8,3.8s1.7,3.8,3.8,3.8s3.8-1.7,3.8-3.8S36.5,29.7,34.4,29.7z"/>
			<rect x="43.9" y="25" class="st4" width="4.3" height="4.3"/>
			<g>
				<path class="st4" d="M7,32.7c0,0.4,0,0.7,0,1.1h3c0-0.3,0-0.7,0-1c0-10,5.8-18.6,14.2-22.7L23,7.4C13.5,11.9,7,21.6,7,32.7z"/>
				<path class="st4" d="M63.5,33.8h-3c-0.3,8.3-4.7,15.6-11.2,20l1.8,2.4C58.3,51.2,63.2,43.1,63.5,33.8z"/>
			</g>
			<polygon class="st4" points="8.3,42.1 1.8,35.6 3.9,33.5 8.3,37.8 12.9,33.2 15,35.3 			"/>
			<polygon class="st4" points="57.5,35.2 55.4,33.1 62.1,26.3 68.6,32.8 66.5,35 62.1,30.6 			"/>
		</g>
	</g>
</g>
<g id="check-mark" class="st0">
	<rect x="20" y="21.6" class="st6" width="28.2" height="28.2"/>
	<polygon class="st7" points="58.5,20 56.3,17.8 34.8,39.2 23.7,28 21.5,30.2 34.8,43.6 34.8,43.6 34.8,43.6 	"/>
</g>
<g id="check-mark_x5F_2">
	<polygon class="st4" points="56.3,23.1 54.1,20.9 32.6,42.3 21.4,31.2 19.3,33.4 32.6,46.7 32.6,46.7 32.6,46.7 	"/>
</g>
<g id="slash" class="st0">
</g>
</svg>
